<?xml version="1.0" encoding="UTF-8" standalone="no"?>
<!DOCTYPE svg PUBLIC "-//W3C//DTD SVG 1.1//EN" "http://www.w3.org/Graphics/SVG/1.1/DTD/svg11.dtd">
<svg xmlns="http://www.w3.org/2000/svg" version="1.1" viewBox="0 0 385 321">
<g stroke-width="2.00" fill="none" stroke-linecap="butt">
<path stroke="#a83e1c" stroke-opacity="0.988" vector-effect="non-scaling-stroke" d="
  M 332.00 0.21
  L 327.50 0.48"
/>
<path stroke="#a83e1c" stroke-opacity="0.988" vector-effect="non-scaling-stroke" d="
  M 345.00 0.21
  L 332.00 0.21"
/>
<path stroke="#a83e1c" stroke-opacity="0.988" vector-effect="non-scaling-stroke" d="
  M 354.56 0.00
  L 345.00 0.21"
/>
</g>
<path fill="#6c4538" fill-opacity="0.976" d="
  M 327.56 0.00
  L 332.06 0.00
  L 332.00 0.21
  L 327.50 0.48
  L 327.56 0.00
  Z"
/>
<path fill="#6c4538" fill-opacity="0.976" d="
  M 332.06 0.00
  L 345.06 0.00
  L 345.00 0.21
  L 332.00 0.21
  L 332.06 0.00
  Z"
/>
<path fill="#6c4538" fill-opacity="0.976" d="
  M 345.06 0.00
  L 354.56 0.00
  L 345.00 0.21
  L 345.06 0.00
  Z"
/>
<path fill="#e33800" d="
  M 354.56 0.00
  L 363.76 0.09
  Q 382.12 0.43 384.79 18.25
  Q 384.36 33.20 384.45 48.16
  Q 384.49 54.87 383.21 58.17
  Q 379.72 67.12 369.00 69.00
  Q 364.45 69.80 354.50 69.81
  Q 342.64 69.82 342.50 69.82
  Q 324.01 70.00 289.25 70.00
  Q 158.75 70.00 28.25 70.04
  Q 24.05 70.04 19.89 69.58
  Q 14.91 69.02 11.81 67.65
  Q 4.92 64.61 2.37 57.81
  Q 1.00 54.15 0.99 45.03
  Q 0.98 32.78 1.04 20.53
  Q 1.06 15.05 2.37 11.80
  Q 5.80 3.24 14.33 1.15
  Q 16.97 0.50 29.23 0.50
  Q 178.37 0.52 327.50 0.48
  L 332.00 0.21
  L 345.00 0.21
  L 354.56 0.00
  Z"
/>
<path fill="#e33800" d="
  M 67.81 126.44
  Q 118.22 125.88 139.72 125.99
  Q 139.82 125.99 144.28 125.93
  Q 149.03 125.88 153.76 126.50
  A 1.42 1.42 3.7 0 1 155.00 127.91
  L 154.93 194.32
  A 0.62 0.62 0.0 0 1 154.31 194.94
  Q 87.55 195.04 20.43 195.00
  Q 15.70 195.00 12.78 193.76
  Q 5.48 190.67 2.28 183.40
  Q 1.00 180.50 0.96 175.87
  Q 0.84 163.46 0.97 151.05
  Q 0.97 150.99 0.84 146.46
  Q 0.66 140.43 3.19 135.69
  Q 6.47 129.54 12.65 127.50
  Q 15.67 126.50 24.46 126.50
  Q 60.60 126.52 67.81 126.44
  Z"
/>
<path fill="#e33800" d="
  M 384.79 146.00
  L 385.00 154.06
  L 385.00 158.56
  L 384.79 164.50
  Q 384.66 169.33 384.57 174.16
  Q 384.46 180.65 383.38 183.68
  Q 380.85 190.80 373.84 193.67
  Q 370.58 195.00 364.47 195.00
  Q 298.33 195.00 231.56 195.00
  A 0.56 0.56 0.0 0 1 231.00 194.44
  L 231.00 127.31
  A 0.85 0.84 86.1 0 1 231.73 126.47
  Q 235.11 126.02 238.75 126.02
  Q 297.88 126.00 357.00 126.00
  Q 362.42 126.00 367.28 126.54
  Q 373.15 127.18 376.69 129.55
  Q 384.75 134.92 384.79 146.00
  Z"
/>
<path fill="#e33800" d="
  M 384.79 282.75
  L 384.79 293.00
  Q 384.65 298.75 384.27 304.49
  Q 383.98 308.96 382.47 311.70
  Q 378.32 319.24 369.19 321.00
  L 230.94 321.00
  L 231.00 253.09
  A 0.58 0.57 -2.8 0 1 231.52 252.52
  Q 237.74 251.91 243.75 251.92
  Q 300.87 252.00 358.00 251.95
  Q 362.80 251.94 367.53 252.52
  Q 373.23 253.22 376.53 255.32
  Q 381.86 258.69 383.68 264.83
  Q 384.46 267.49 384.60 273.76
  Q 384.69 278.26 384.79 282.75
  Z"
/>
<path fill="#e33800" d="
  M 154.69 321.00
  L 15.94 321.00
  Q 5.87 318.43 2.48 309.95
  Q 1.00 306.26 1.00 297.84
  Q 1.00 284.42 1.00 271.00
  Q 1.00 266.73 2.11 264.09
  Q 5.78 255.37 13.68 253.19
  Q 16.17 252.50 28.39 252.50
  Q 91.07 252.50 153.76 252.50
  A 1.00 1.00 89.4 0 1 154.76 253.48
  Q 155.42 287.00 154.69 321.00
  Z"
/>
</svg>
