<svg xmlns="http://www.w3.org/2000/svg" width="87.874" height="40.91" viewBox="0 0 87.874 40.91">
  <g id="Group_74" data-name="Group 74" transform="translate(-28.083 -23.725)">
    <g id="Group_19" data-name="Group 19">
      <g id="Fill_15" data-name="Fill 15">
        <path id="Path_280" data-name="Path 280" d="M113.772,46.919h-.923c-1.792,0-2.154-.083-2.154-.5V33.25h-.123c-.055.184-.254.831-.523,1.48l-3.2,7.948c-.153.4-.28.525-1.939.525h-1.038c-1.6,0-1.811-.144-1.969-.525L98.39,34.425a8.339,8.339,0,0,1-.4-1.175h-.118V46.425c0,.393-.456.5-2.215.5H94.7c-1.721,0-2.093-.088-2.093-.5V24.22c0-.328.314-.495,2.031-.495h1.724c1.756,0,2.44.146,2.616.557l3.041,7.236a57.275,57.275,0,0,1,2.462,6.556c.423-1.439,1.572-4.292,2.462-6.432l3.045-7.36c.152-.336.253-.557,2.247-.557h1.534c1.593,0,2.185.134,2.185.495v22.2C115.962,46.817,115.512,46.919,113.772,46.919Zm-27.725,0h-.985c-1.832,0-2.093-.1-2.093-.495v-22.2c0-.342.3-.5,2.093-.5h.985c1.593,0,2.185.134,2.185.495v22.2c0,.392-.445.494-2.181.494Zm-14.678,0H70.45c-1.832,0-2.092-.1-2.092-.495V28.7H63.126c-.232,0-.357-.04-.438-.267a5.257,5.257,0,0,1-.116-1.5V25.425c0-1.7.1-1.7.554-1.7H78.85c.457,0,.554.057.554,1.7v1.516c0,1.555-.111,1.763-.554,1.763H73.619V46.425c0,.392-.462.494-2.247.494Z" fill="#004691"/>
      </g>
      <g id="Fill_17" data-name="Fill 17">
        <path id="Path_281" data-name="Path 281" d="M39.466,46.919h-9.7a1.307,1.307,0,0,1-.944-.394,1.332,1.332,0,0,1-.384-.94V43.292a1.333,1.333,0,0,1,.387-.942,1.319,1.319,0,0,1,.938-.392h9.7v4.961Zm15.217,0h-9.7V41.957h9.7a1.315,1.315,0,0,1,.942.4,1.33,1.33,0,0,1,.383.938v2.293a1.33,1.33,0,0,1-.384.939A1.306,1.306,0,0,1,54.683,46.919ZM39.466,37.8h-9.7a1.312,1.312,0,0,1-.941-.394,1.331,1.331,0,0,1-.387-.94V34.176a1.333,1.333,0,0,1,.387-.942,1.319,1.319,0,0,1,.938-.392h9.7V37.8Zm15.217,0h-9.7V32.841h9.7a1.315,1.315,0,0,1,.942.4,1.33,1.33,0,0,1,.383.938v2.293a1.33,1.33,0,0,1-.384.939A1.306,1.306,0,0,1,54.683,37.8Zm0-9.116H29.763a1.312,1.312,0,0,1-.941-.394,1.333,1.333,0,0,1-.384-.941V25.059a1.333,1.333,0,0,1,.387-.942,1.319,1.319,0,0,1,.938-.392h24.92a1.337,1.337,0,0,1,1.325,1.338v2.289a1.33,1.33,0,0,1-.384.939,1.307,1.307,0,0,1-.941.4Z" fill="#ec1b2e"/>
      </g>
    </g>
    <g id="Agente_Autorizado" data-name="Agente Autorizado" style="isolation: isolate">
      <g id="Group_73" data-name="Group 73" style="isolation: isolate">
        <path id="Path_282" data-name="Path 282" d="M28.1,62.136l2.668-6.866c.05-.14.08-.161.66-.161h.1c.6,0,.63.01.69.161l2.738,6.856c.061.149-.04.18-.619.18H34.2c-.6,0-.71-.031-.76-.17l-.629-1.659H30.151l-.6,1.659c-.071.15-.15.17-.75.17h-.11C28.092,62.306,28.042,62.3,28.1,62.136Zm4.3-2.759-.23-.649c-.36-1.02-.54-1.54-.68-2.049-.159.509-.4,1.179-.689,2.018l-.24.68Z" fill="#adbac7"/>
        <path id="Path_283" data-name="Path 283" d="M36.092,64.225c-.1-.06-.13-.13.03-.51l.07-.17c.14-.33.2-.41.309-.359a3.04,3.04,0,0,0,1.18.289c.739,0,1.15-.379,1.15-1.45v-.149a1.957,1.957,0,0,1-1.28.449c-1.309,0-2.119-.978-2.119-2.618.01-1.769.93-2.778,2.189-2.778a1.8,1.8,0,0,1,1.329.619,2.934,2.934,0,0,1,.08-.409c.03-.071.03-.111.47-.111h.1c.39,0,.47.01.51.12a12.257,12.257,0,0,1,.09,2.11v2.618a3.041,3.041,0,0,1-.61,2.1,2.344,2.344,0,0,1-1.829.66A3.683,3.683,0,0,1,36.092,64.225Zm2.6-3.319a.742.742,0,0,0,.141-.539V58.718a1.042,1.042,0,0,0-.91-.61c-.67,0-1.08.52-1.08,1.6,0,.96.37,1.459,1.1,1.459A1.111,1.111,0,0,0,38.69,60.906Z" fill="#adbac7"/>
        <path id="Path_284" data-name="Path 284" d="M41.232,59.728c0-1.64.93-2.8,2.459-2.8S46,58.058,46,59.617c0,.39-.021.52-.1.52H42.661a1.2,1.2,0,0,0,1.319,1.1,3.626,3.626,0,0,0,1.41-.32c.11-.05.16-.01.27.29l.09.25c.12.34.109.4-.01.47A4.212,4.212,0,0,1,43.8,62.4,2.42,2.42,0,0,1,41.232,59.728Zm3.4-.571c-.06-.619-.37-1.079-.929-1.079s-.91.409-1.04,1.079Z" fill="#adbac7"/>
        <path id="Path_285" data-name="Path 285" d="M47.112,62.155V59.4c0-.779-.03-1.649-.07-2.189-.01-.14.03-.18.6-.18h.049c.49,0,.58.021.62.13a2.688,2.688,0,0,1,.07.4,1.907,1.907,0,0,1,1.449-.63,1.8,1.8,0,0,1,1.39.54,2.246,2.246,0,0,1,.469,1.608v3.078c0,.111-.06.151-.649.151h-.05c-.65,0-.67-.04-.67-.151v-2.7c0-.689-.04-.9-.2-1.079a.889.889,0,0,0-.669-.231,1.356,1.356,0,0,0-.67.161.587.587,0,0,0-.28.53c-.02.229-.02.6-.02.979v2.338c0,.111-.06.151-.649.151h-.051C47.132,62.306,47.112,62.266,47.112,62.155Z" fill="#adbac7"/>
        <path id="Path_286" data-name="Path 286" d="M53.711,62a1.808,1.808,0,0,1-.409-1.35V58.1h-.79c-.09,0-.13-.08-.13-.4v-.07c0-.289.05-.38.13-.4.84-.241,1.07-.59,1.17-1.52.009-.109.1-.12.449-.12h.09c.38,0,.45.04.45.15v1.289H55.86c.09,0,.13.021.13.5V57.6c0,.479-.04.5-.13.5H54.671v2.468a.694.694,0,0,0,.17.56.645.645,0,0,0,.44.141,1.67,1.67,0,0,0,.519-.1c.1-.029.15.03.26.4l.03.1c.11.37.1.43-.02.489a2.723,2.723,0,0,1-1.149.25A1.632,1.632,0,0,1,53.711,62Z" fill="#adbac7"/>
        <path id="Path_287" data-name="Path 287" d="M56.712,59.728c0-1.64.93-2.8,2.459-2.8s2.308,1.129,2.308,2.688c0,.39-.02.52-.1.52H58.141a1.2,1.2,0,0,0,1.319,1.1,3.626,3.626,0,0,0,1.41-.32c.11-.05.16-.01.27.29l.089.25c.121.34.11.4-.009.47a4.212,4.212,0,0,1-1.939.479A2.42,2.42,0,0,1,56.712,59.728Zm3.4-.571c-.06-.619-.37-1.079-.929-1.079s-.91.409-1.04,1.079Z" fill="#adbac7"/>
        <path id="Path_288" data-name="Path 288" d="M64.592,62.136l2.669-6.866c.05-.14.079-.161.659-.161h.1c.6,0,.63.01.69.161l2.738,6.856c.06.149-.04.18-.619.18h-.14c-.6,0-.71-.031-.76-.17l-.63-1.659H66.641l-.6,1.659c-.071.15-.151.17-.75.17h-.11C64.582,62.306,64.532,62.3,64.592,62.136Zm4.3-2.759-.23-.649c-.36-1.02-.54-1.54-.68-2.049-.16.509-.4,1.179-.689,2.018l-.24.68Z" fill="#adbac7"/>
        <path id="Path_289" data-name="Path 289" d="M72.651,61.866a2.245,2.245,0,0,1-.469-1.609V57.179c0-.111.019-.151.669-.151h.05c.59,0,.65.04.65.151v2.7c0,.689.04.9.2,1.079a.866.866,0,0,0,.66.231,1.307,1.307,0,0,0,.66-.161.586.586,0,0,0,.28-.529c.02-.23.02-.6.02-.979V57.179c0-.111.02-.151.669-.151h.05c.59,0,.65.04.65.151v2.758c0,.78.03,1.649.07,2.189.01.14-.03.18-.6.18h-.05c-.49,0-.579-.02-.619-.13a2.7,2.7,0,0,1-.07-.4,1.858,1.858,0,0,1-1.44.629A1.772,1.772,0,0,1,72.651,61.866Z" fill="#adbac7"/>
        <path id="Path_290" data-name="Path 290" d="M78.831,62a1.8,1.8,0,0,1-.41-1.35V58.1h-.789c-.09,0-.13-.08-.13-.4v-.07c0-.289.05-.38.13-.4.839-.241,1.069-.59,1.169-1.52.01-.109.1-.12.45-.12h.09c.38,0,.45.04.45.15v1.289H80.98c.09,0,.13.021.13.5V57.6c0,.479-.04.5-.13.5H79.791v2.468a.694.694,0,0,0,.169.56.647.647,0,0,0,.44.141,1.675,1.675,0,0,0,.52-.1c.1-.029.15.03.26.4l.03.1c.11.37.1.43-.02.489a2.726,2.726,0,0,1-1.149.25A1.632,1.632,0,0,1,78.831,62Z" fill="#adbac7"/>
        <path id="Path_291" data-name="Path 291" d="M81.881,59.767c0-1.809.9-2.838,2.569-2.838,1.489,0,2.4.909,2.4,2.638,0,1.809-.9,2.838-2.569,2.838C82.791,62.4,81.881,61.5,81.881,59.767Zm3.558-.14c0-.97-.319-1.519-1.019-1.519-.79,0-1.129.6-1.129,1.6,0,.97.319,1.52,1.019,1.52C85.1,61.227,85.439,60.627,85.439,59.627Z" fill="#adbac7"/>
        <path id="Path_292" data-name="Path 292" d="M87.9,62.155V59.4c0-.779-.03-1.649-.069-2.189-.011-.14.029-.18.6-.18h.06c.49,0,.58.021.61.13a7.45,7.45,0,0,1,.12,1.03c.32-.82.739-1.259,1.379-1.259a.659.659,0,0,1,.26.04c.07.03.09.05.09.5v.139c0,.51-.031.53-.14.539a1.458,1.458,0,0,0-1.17.68,3.451,3.451,0,0,0-.369,1.89v1.438c0,.111-.061.151-.65.151h-.05C87.921,62.306,87.9,62.266,87.9,62.155Z" fill="#adbac7"/>
        <path id="Path_293" data-name="Path 293" d="M91.691,55.409a.84.84,0,1,1,.84.82A.828.828,0,0,1,91.691,55.409Zm.18,6.746V57.179c0-.111.02-.151.67-.151h.05c.589,0,.649.04.649.151v4.976c0,.111-.06.151-.649.151h-.05C91.891,62.306,91.871,62.266,91.871,62.155Z" fill="#adbac7"/>
        <path id="Path_294" data-name="Path 294" d="M94.311,62.166v-.36a.778.778,0,0,1,.15-.5l2.189-3.219H94.571c-.09,0-.13-.03-.13-.51v-.04c0-.479.04-.51.13-.51H98c.32,0,.36.031.36.141v.359a.781.781,0,0,1-.15.5L96.04,61.246h2.249c.09,0,.13.03.13.51v.04c0,.479-.04.51-.13.51H94.671C94.351,62.306,94.311,62.275,94.311,62.166Z" fill="#adbac7"/>
        <path id="Path_295" data-name="Path 295" d="M98.941,59.767c0-1.819,1.01-2.838,2.209-2.838a1.569,1.569,0,0,1,1.26.59l.04-.361c.009-.09.05-.13.59-.13h.059c.51,0,.58.031.58.141,0,.329-.02,1.339-.02,2.158v.61c0,.78.03,1.649.07,2.189.01.14,0,.18-.57.18h-.05c-.489,0-.569-.02-.609-.13a1.811,1.811,0,0,1-.07-.34,1.931,1.931,0,0,1-1.369.569C99.751,62.4,98.941,61.406,98.941,59.767Zm3.209,1.189a.864.864,0,0,0,.14-.56V58.6a1.056,1.056,0,0,0-.87-.48c-.73,0-1.069.579-1.069,1.61,0,.888.24,1.528,1.049,1.528A.963.963,0,0,0,102.15,60.956Z" fill="#adbac7"/>
        <path id="Path_296" data-name="Path 296" d="M104.711,59.747c0-1.768.89-2.818,2.2-2.818a1.743,1.743,0,0,1,1.189.449V54.859c0-.109.02-.149.67-.149h.05c.59,0,.649.04.649.149v6.108c0,.22.091.279.29.279.12,0,.13.05.13.41v.11c0,.35-.02.429-.09.46a2.11,2.11,0,0,1-.719.12.882.882,0,0,1-.87-.5,1.888,1.888,0,0,1-1.389.559C105.511,62.4,104.711,61.386,104.711,59.747Zm3.248,1.23a.748.748,0,0,0,.14-.54v-1.87a1.147,1.147,0,0,0-.9-.459c-.73,0-1.08.58-1.08,1.639a1.782,1.782,0,0,0,.34,1.2.973.973,0,0,0,.75.29A1.111,1.111,0,0,0,107.959,60.977Z" fill="#adbac7"/>
        <path id="Path_297" data-name="Path 297" d="M110.621,59.767c0-1.809.9-2.838,2.569-2.838,1.489,0,2.4.909,2.4,2.638,0,1.809-.9,2.838-2.568,2.838C111.531,62.4,110.621,61.5,110.621,59.767Zm3.558-.14c0-.97-.32-1.519-1.019-1.519-.79,0-1.13.6-1.13,1.6,0,.97.32,1.52,1.02,1.52C113.839,61.227,114.179,60.627,114.179,59.627Z" fill="#adbac7"/>
      </g>
    </g>
  </g>
</svg>
