<?xml version="1.0" encoding="UTF-8" standalone="no"?>
<!DOCTYPE svg PUBLIC "-//W3C//DTD SVG 1.1//EN" "http://www.w3.org/Graphics/SVG/1.1/DTD/svg11.dtd">
<svg xmlns="http://www.w3.org/2000/svg" version="1.1" viewBox="0 0 1306 448">
<g stroke-width="2.00" fill="none" stroke-linecap="butt">
<path stroke="#dee3e0" stroke-opacity="0.988" vector-effect="non-scaling-stroke" d="
  M 599.46 379.00
  Q 599.25 376.62 597.46 377.50"
/>
<path stroke="#dee3e0" stroke-opacity="0.988" vector-effect="non-scaling-stroke" d="
  M 871.46 377.25
  Q 870.14 377.19 869.75 378.46"
/>
</g>
<path fill="#e33800" d="
  M 53.43 124.81
  Q 47.18 119.42 47.00 111.00
  Q 46.89 105.75 47.04 80.02
  Q 47.07 74.93 48.34 71.81
  Q 51.82 63.25 60.31 61.15
  Q 62.93 60.50 75.24 60.50
  Q 215.87 60.50 356.50 60.41
  Q 379.53 60.40 385.19 60.19
  Q 400.58 59.62 412.50 60.25
  Q 418.13 60.55 423.07 64.22
  Q 429.13 68.72 430.36 75.42
  Q 430.50 76.21 430.50 88.09
  Q 430.50 98.26 430.50 108.43
  Q 430.50 115.03 429.13 118.37
  Q 426.22 125.47 418.71 128.08
  Q 416.35 128.90 411.66 129.19
  Q 409.26 129.34 406.87 129.54
  Q 404.32 129.75 402.10 129.77
  Q 366.93 130.11 331.75 130.09
  Q 204.75 130.00 77.75 130.00
  Q 71.49 130.00 65.24 129.60
  Q 58.49 129.17 53.43 124.81
  Z"
/>
<path fill="#ffffff" d="
  M 652.75 380.29
  L 646.25 380.46
  Q 628.88 380.53 611.50 380.46
  Q 608.37 380.45 605.27 380.12
  Q 605.04 380.09 603.31 379.62
  Q 602.30 379.35 601.23 379.61
  A 1.63 0.69 -23.0 0 1 600.28 379.61
  Q 599.79 379.41 599.46 379.00
  Q 599.25 376.62 597.46 377.50
  Q 596.49 375.10 596.49 372.50
  Q 596.50 251.50 596.50 129.94
  A 0.69 0.69 0.1 0 0 595.81 129.25
  Q 559.75 129.25 523.75 129.35
  Q 522.02 129.35 520.50 128.50
  A 3.45 0.47 27.7 0 1 518.31 126.94
  Q 517.06 124.66 516.91 121.99
  Q 515.33 94.72 516.87 67.45
  Q 516.95 65.91 517.94 62.92
  A 1.61 1.55 86.7 0 1 518.74 61.99
  Q 521.77 60.50 523.50 60.51
  Q 633.75 60.75 744.00 60.75
  Q 746.53 60.75 748.15 62.91
  A 1.78 1.40 -70.8 0 1 748.46 63.81
  Q 748.58 65.73 748.89 67.62
  Q 749.26 69.89 749.31 71.41
  Q 750.04 97.30 748.63 123.15
  Q 748.47 126.15 747.21 127.47
  Q 745.48 129.27 742.50 129.26
  Q 706.16 129.20 670.20 129.31
  A 0.71 0.70 -90.0 0 0 669.50 130.02
  Q 669.55 251.89 669.44 372.80
  Q 669.44 375.97 668.45 377.35
  Q 666.93 379.49 663.75 379.56
  Q 658.24 379.70 652.75 380.29
  Z"
/>
<path fill="#ffffff" d="
  M 871.46 377.25
  Q 870.14 377.19 869.75 378.46
  Q 869.40 378.82 868.98 379.08
  Q 868.62 379.31 868.07 379.35
  Q 857.79 380.06 847.50 380.67
  L 812.24 380.73
  Q 809.32 380.31 806.47 379.75
  Q 806.37 379.73 804.01 379.46
  Q 801.47 379.16 800.26 377.15
  Q 799.50 375.89 799.50 373.20
  Q 799.50 220.23 799.50 67.25
  Q 799.50 65.06 801.00 63.59
  Q 802.06 62.56 804.34 62.19
  Q 810.72 61.16 816.25 61.00
  Q 832.22 60.53 849.94 61.30
  Q 849.99 61.30 858.56 61.35
  Q 864.09 61.38 868.06 62.69
  Q 871.80 63.92 872.45 67.52
  Q 872.53 67.98 872.46 73.49
  Q 872.22 93.12 872.26 112.75
  Q 872.50 239.37 872.50 366.00
  Q 872.50 373.12 871.46 377.25
  Z"
/>
<path fill="#ffffff" d="
  M 1231.25 380.54
  L 1197.49 380.68
  L 1188.31 379.48
  A 1.07 0.70 71.6 0 1 1187.66 378.97
  Q 1187.35 378.45 1186.50 378.50
  Q 1185.28 378.58 1185.37 377.30
  A 0.87 0.83 20.4 0 0 1185.01 376.56
  Q 1184.14 375.93 1184.30 374.91
  Q 1184.50 373.68 1184.50 373.55
  Q 1184.50 284.49 1184.50 195.44
  Q 1184.50 195.38 1184.54 194.57
  Q 1184.63 192.55 1182.86 193.27
  A 2.04 2.03 -0.4 0 0 1181.71 194.43
  Q 1156.70 257.83 1131.94 319.44
  Q 1130.40 323.27 1129.69 324.63
  Q 1128.29 327.32 1125.32 328.08
  Q 1121.21 329.13 1116.98 329.06
  Q 1114.10 329.01 1114.02 329.01
  Q 1077.65 329.26 1070.75 328.75
  Q 1066.05 328.40 1063.40 324.88
  Q 1062.57 323.78 1060.01 317.84
  Q 1033.78 256.93 1008.13 195.77
  A 1.20 0.90 81.9 0 0 1007.47 195.11
  Q 1006.25 194.74 1006.25 196.75
  Q 1006.30 284.97 1006.19 373.20
  Q 1006.19 375.61 1004.82 377.59
  Q 1003.50 379.49 1000.01 379.67
  Q 976.36 380.87 952.68 380.53
  Q 952.56 380.53 948.83 380.54
  Q 942.55 380.57 936.44 379.07
  Q 934.21 378.52 933.46 376.50
  L 933.29 373.25
  Q 933.00 371.74 933.00 368.75
  Q 933.00 220.87 933.00 73.00
  Q 933.00 68.84 933.54 65.88
  Q 934.11 62.77 937.23 62.25
  Q 946.69 60.69 956.25 60.65
  Q 990.02 60.49 1000.25 61.00
  Q 1009.00 61.43 1015.50 63.50
  Q 1017.42 64.11 1019.08 65.74
  Q 1020.25 66.90 1021.34 69.18
  Q 1024.08 74.88 1028.06 84.19
  Q 1046.13 126.36 1063.79 168.70
  Q 1080.33 208.39 1095.23 248.72
  Q 1096.25 251.47 1097.86 254.18
  Q 1098.49 255.24 1099.02 254.13
  Q 1100.52 251.03 1101.93 247.36
  Q 1134.46 162.88 1169.54 79.42
  Q 1169.58 79.33 1171.76 73.93
  Q 1174.13 68.04 1176.06 65.56
  Q 1178.74 62.13 1184.50 61.77
  Q 1212.23 60.09 1240.00 61.01
  Q 1246.78 61.23 1253.27 63.06
  Q 1255.21 63.61 1256.11 64.85
  Q 1257.25 66.43 1257.25 68.25
  Q 1257.25 221.00 1257.25 373.75
  Q 1257.25 375.80 1256.44 376.94
  Q 1254.56 379.57 1251.26 379.72
  Q 1241.26 380.17 1231.25 380.54
  Z"
/>
<path fill="#e33800" d="
  M 200.36 186.77
  A 0.86 0.84 -83.1 0 1 201.00 187.60
  L 201.00 254.31
  A 0.69 0.69 0.0 0 1 200.31 255.00
  Q 133.03 255.04 65.81 254.94
  Q 61.32 254.94 58.53 253.70
  Q 50.47 250.12 47.44 241.08
  Q 47.00 239.76 47.00 238.36
  Q 47.00 222.90 47.00 208.73
  Q 47.00 201.05 48.43 197.46
  Q 51.17 190.55 58.17 187.81
  Q 61.53 186.50 68.01 186.54
  Q 93.51 186.69 119.01 186.21
  Q 130.16 186.00 139.00 186.00
  Q 166.25 185.98 193.50 185.86
  Q 196.84 185.85 200.36 186.77
  Z"
/>
<path fill="#e33800" d="
  M 425.58 249.83
  Q 420.64 254.87 413.50 254.88
  Q 345.62 255.00 277.56 255.00
  A 0.56 0.56 0.0 0 1 277.00 254.44
  L 277.00 187.17
  A 0.65 0.64 86.5 0 1 277.56 186.53
  Q 282.97 185.80 288.25 185.81
  Q 345.62 186.00 403.00 186.00
  Q 410.47 186.00 415.47 186.92
  Q 424.73 188.62 428.42 195.78
  Q 430.48 199.78 430.81 209.57
  Q 431.32 225.24 430.31 239.56
  Q 429.90 245.43 425.58 249.83
  Z"
/>
<path fill="#e33800" d="
  M 402.29 381.05
  Q 339.89 380.96 277.50 381.00
  A 0.50 0.50 0.0 0 1 277.00 380.50
  L 277.00 313.16
  A 0.67 0.67 -1.3 0 1 277.64 312.49
  Q 288.87 312.04 300.25 312.03
  Q 352.00 312.00 403.75 311.99
  Q 407.69 311.99 411.60 312.33
  Q 416.40 312.74 419.27 313.82
  Q 430.19 317.92 430.50 331.50
  Q 430.95 351.44 430.22 364.84
  Q 430.00 368.72 428.58 371.35
  Q 424.50 378.93 416.56 380.64
  Q 414.58 381.07 402.29 381.05
  Z"
/>
<path fill="#e33800" d="
  M 52.79 375.96
  Q 46.36 369.48 46.76 360.52
  Q 46.98 355.58 46.98 355.47
  Q 46.89 343.66 46.97 331.86
  Q 47.00 326.94 48.27 323.84
  Q 52.00 314.68 61.16 312.84
  Q 62.82 312.50 76.88 312.50
  Q 136.81 312.49 196.75 312.35
  Q 198.65 312.34 200.18 312.68
  A 1.04 1.04 -83.8 0 1 201.00 313.70
  L 201.00 380.31
  A 0.69 0.69 0.0 0 1 200.31 381.00
  Q 131.50 381.00 63.25 381.00
  Q 57.80 381.00 52.79 375.96
  Z"
/>
<path fill="#bdc7c0" fill-opacity="0.976" d="
  M 599.46 379.00
  Q 598.17 378.65 597.46 377.50
  Q 599.25 376.62 599.46 379.00
  Z"
/>
<path fill="#bdc7c0" fill-opacity="0.976" d="
  M 871.46 377.25
  Q 871.03 378.50 869.75 378.46
  Q 870.14 377.19 871.46 377.25
  Z"
/>
</svg>
